<?xml version="1.0" encoding="utf-8"?>
<!-- Generator: Adobe Illustrator 21.0.0, SVG Export Plug-In . SVG Version: 6.00 Build 0)  -->
<svg version="1.1" id="Layer_1" xmlns="http://www.w3.org/2000/svg" xmlns:xlink="http://www.w3.org/1999/xlink" x="0px" y="0px"
	 viewBox="0 0 150 187.5" style="enable-background:new 0 0 150 187.5;" xml:space="preserve">
<g>
	<path fill="#3B3B3B" d="M47.9,109.1c0.3-0.2,0.6-0.3,0.9-0.4l35.2-6.5c2.4-0.5,4.8-1.2,7.2-2L135,84.3l-0.4-0.7c-1-1.9-2.8-3.9-8.3-3.2l-44.2,7.3
		c-3.4,0.6-7.1-1.1-10-2.4L71.4,85l-13.1-5.4c-1-0.4-1.5-1.6-1.1-2.7l5.5-13.5c1.8-4.6,0.4-10-3.4-13l-0.1-0.1
		c-0.3-0.2-0.5-0.2-0.6-0.1c-0.1,0-0.4,0.1-0.5,0.4L58,50.7c0,0.1-0.1,0.1-0.1,0.2l-4.7,8.7c-0.1,0.2-0.2,0.3-0.4,0.5l-3.6,3.6
		c-3.5,3.4-6.1,7.7-7.7,12.4l-5.9,16.7c-0.2,0.4-0.4,0.8-0.8,1l-4,2.6l12.9,16.1L47.9,109.1z"/>
	<path fill="#3B3B3B" d="M111.2,56l-5.9,0.4c-0.8,0.1-1.5-0.3-1.9-1l-6.7-11.7l0,0l9.6,8.5l21.9-1.4l-16.4-27.4l-21,4.4L88.4,53l15.2,11.8L111.2,56
		z"/>
	<rect fill="#3B3B3B" x="23.5" y="95" transform="matrix(0.7797 -0.6262 0.6262 0.7797 -62.8145 42.8178)" width="11.9" height="31.3"/>
</g>
</svg>
