<svg xmlns="http://www.w3.org/2000/svg" xmlns:xlink="http://www.w3.org/1999/xlink" version="1.1" x="0px" y="0px" viewBox="0 0 1000 649.375" enable-background="new 0 0 1000 519.5" xml:space="preserve"><path fill="#3B3B3B" d="M4.333,21.635c0,10.853,9.403,20.349,20.149,20.349h64.472l147.751,158.719c1.343,2.713,5.373,4.069,8.06,5.427  l115.514,37.984V383.84c0,13.567,1.344,24.419,5.373,32.559c4.03,9.496,9.403,16.278,17.462,18.992  c8.06,2.713,16.119,2.713,24.177,0c8.06-2.714,16.119-8.139,24.177-16.279l80.591-74.611l38.954-36.628l170.585,55.62  c-6.717,13.565-10.745,29.845-10.745,46.125c0,58.332,47.012,105.813,104.769,105.813s104.769-47.48,104.769-105.813  c0-58.333-47.012-105.813-104.769-105.813c-26.863,0-51.041,10.851-69.846,27.131c-2.688-1.356-4.029-2.714-6.717-2.714  l-95.366-31.201L894.871,82.681h81.936c10.745,0,20.146-9.496,20.146-20.348c0-9.049-6.541-17.133-14.942-19.578H246.885  c-6.686,3.39-11.521,10.447-11.521,18.22c0,10.853,9.403,20.349,20.147,20.349h59.101l2.687,108.526l-57.758-18.992L109.104,10.783  C105.074,5.356,99.701,4,94.328,4H21.795C11.049,4,2.991,12.139,4.333,21.635z M761.895,406.902c0-5.427,1.344-9.495,2.688-14.922  l40.295,31.201c8.061,6.782,20.147,4.068,26.864-4.07s4.029-20.349-4.029-27.131l-40.296-31.201  c8.06-5.427,17.461-8.141,28.207-8.141c30.893,0,55.07,25.776,55.07,55.62c0,31.2-25.52,55.619-55.07,55.619  S760.552,439.459,761.895,406.902z M396.546,256.323l110.142,35.27l-103.424,94.961c-2.687,2.713-5.373,4.07-6.717,5.427  c0-2.714,0-6.783,0-10.853V256.323z"/>
</svg>
